<svg width="152" height="137" viewBox="0 0 152 137" fill="none" xmlns="http://www.w3.org/2000/svg">
<path d="M67.6279 68.748H29.1758L22.4375 84.4219C20.7773 88.2793 19.9473 91.1602 19.9473 93.0645C19.9473 94.5781 20.6553 95.9209 22.0713 97.0928C23.5361 98.2158 26.6611 98.9482 31.4463 99.29V102H0.171875V99.29C4.32227 98.5576 7.00781 97.6055 8.22852 96.4336C10.7188 94.0898 13.4775 89.3291 16.5049 82.1514L51.4414 0.413086H54.0049L88.5752 83.0303C91.3584 89.6709 93.873 93.9922 96.1191 95.9941C98.4141 97.9473 101.588 99.0459 105.641 99.29V102H66.4561V99.29C70.4111 99.0947 73.0723 98.4355 74.4395 97.3125C75.8555 96.1895 76.5635 94.8223 76.5635 93.2109C76.5635 91.0625 75.5869 87.6689 73.6338 83.0303L67.6279 68.748ZM65.5771 63.3281L48.7314 23.1914L31.4463 63.3281H65.5771ZM113.026 68.748H74.5742L67.8359 84.4219C66.1758 88.2793 65.3457 91.1602 65.3457 93.0645C65.3457 94.5781 66.0537 95.9209 67.4697 97.0928C68.9346 98.2158 72.0596 98.9482 76.8447 99.29V102H45.5703V99.29C49.7207 98.5576 52.4062 97.6055 53.627 96.4336C56.1172 94.0898 58.876 89.3291 61.9033 82.1514L96.8398 0.413086H99.4033L133.974 83.0303C136.757 89.6709 139.271 93.9922 141.518 95.9941C143.812 97.9473 146.986 99.0459 151.039 99.29V102H111.854V99.29C115.81 99.0947 118.471 98.4355 119.838 97.3125C121.254 96.1895 121.962 94.8223 121.962 93.2109C121.962 91.0625 120.985 87.6689 119.032 83.0303L113.026 68.748ZM110.976 63.3281L94.1299 23.1914L76.8447 63.3281H110.976ZM18.2568 107.556V117.174H17.498C17.252 115.328 16.8076 113.858 16.165 112.765C15.5361 111.671 14.6338 110.803 13.458 110.16C12.2822 109.518 11.0654 109.196 9.80762 109.196C8.38574 109.196 7.20996 109.634 6.28027 110.509C5.35059 111.37 4.88574 112.354 4.88574 113.462C4.88574 114.31 5.17969 115.082 5.76758 115.779C6.61523 116.805 8.63184 118.172 11.8174 119.881C14.415 121.275 16.1855 122.349 17.1289 123.101C18.0859 123.839 18.8174 124.714 19.3232 125.726C19.8428 126.737 20.1025 127.797 20.1025 128.904C20.1025 131.01 19.2822 132.828 17.6416 134.359C16.0146 135.877 13.916 136.636 11.3457 136.636C10.5391 136.636 9.78027 136.574 9.06934 136.451C8.64551 136.383 7.76367 136.137 6.42383 135.713C5.09766 135.275 4.25684 135.057 3.90137 135.057C3.55957 135.057 3.28613 135.159 3.08105 135.364C2.88965 135.569 2.74609 135.993 2.65039 136.636H1.8916V127.1H2.65039C3.00586 129.096 3.48438 130.593 4.08594 131.591C4.6875 132.575 5.60352 133.396 6.83398 134.052C8.07812 134.708 9.43848 135.036 10.915 135.036C12.624 135.036 13.9707 134.585 14.9551 133.683C15.9531 132.78 16.4521 131.714 16.4521 130.483C16.4521 129.8 16.2607 129.109 15.8779 128.412C15.5088 127.715 14.9277 127.065 14.1348 126.464C13.6016 126.054 12.1455 125.186 9.7666 123.859C7.3877 122.52 5.69238 121.453 4.68066 120.66C3.68262 119.867 2.92383 118.992 2.4043 118.035C1.88477 117.078 1.625 116.025 1.625 114.877C1.625 112.881 2.39062 111.165 3.92188 109.729C5.45312 108.28 7.40137 107.556 9.7666 107.556C11.2432 107.556 12.8086 107.918 14.4629 108.643C15.2285 108.984 15.7686 109.155 16.083 109.155C16.4385 109.155 16.7256 109.053 16.9443 108.848C17.1768 108.629 17.3613 108.198 17.498 107.556H18.2568ZM46.6807 108.191L46.9883 114.713H46.209C46.0586 113.564 45.8535 112.744 45.5938 112.252C45.1699 111.459 44.6025 110.878 43.8916 110.509C43.1943 110.126 42.2715 109.935 41.123 109.935H37.2061V131.181C37.2061 132.89 37.3906 133.956 37.7598 134.38C38.2793 134.954 39.0791 135.241 40.1592 135.241H41.123V136H29.3311V135.241H30.3154C31.4912 135.241 32.3252 134.886 32.8174 134.175C33.1182 133.737 33.2686 132.739 33.2686 131.181V109.935H29.9258C28.627 109.935 27.7041 110.03 27.1572 110.222C26.4463 110.481 25.8379 110.98 25.332 111.719C24.8262 112.457 24.5254 113.455 24.4297 114.713H23.6504L23.9785 108.191H46.6807ZM68.0908 108.95V108.191H77.9346V108.95H76.8887C75.7949 108.95 74.9541 109.408 74.3662 110.324C74.0791 110.748 73.9355 111.732 73.9355 113.277V124.557C73.9355 127.346 73.6553 129.513 73.0947 131.058C72.5479 132.589 71.4609 133.908 69.834 135.016C68.2207 136.109 66.0195 136.656 63.2305 136.656C60.1953 136.656 57.8916 136.13 56.3193 135.077C54.7471 134.024 53.6328 132.609 52.9766 130.832C52.5391 129.615 52.3203 127.332 52.3203 123.982V113.113C52.3203 111.404 52.0811 110.283 51.6025 109.75C51.1377 109.217 50.3789 108.95 49.3262 108.95H48.2803V108.191H60.2979V108.95H59.2314C58.083 108.95 57.2627 109.312 56.7705 110.037C56.4287 110.529 56.2578 111.555 56.2578 113.113V125.233C56.2578 126.313 56.3535 127.551 56.5449 128.945C56.75 130.34 57.1123 131.427 57.6318 132.206C58.1514 132.985 58.8965 133.628 59.8672 134.134C60.8516 134.64 62.0547 134.893 63.4766 134.893C65.2949 134.893 66.9219 134.496 68.3574 133.703C69.793 132.91 70.7705 131.898 71.29 130.668C71.8232 129.424 72.0898 127.325 72.0898 124.372V113.113C72.0898 111.377 71.8984 110.29 71.5156 109.853C70.9824 109.251 70.1895 108.95 69.1367 108.95H68.0908ZM79.124 136V135.241H80.1699C81.3457 135.241 82.1797 134.865 82.6719 134.113C82.9727 133.662 83.123 132.65 83.123 131.078V113.113C83.123 111.377 82.9316 110.29 82.5488 109.853C82.0156 109.251 81.2227 108.95 80.1699 108.95H79.124V108.191H90.4443C94.6006 108.191 97.7588 108.663 99.9189 109.606C102.093 110.55 103.836 112.122 105.148 114.323C106.475 116.524 107.138 119.067 107.138 121.952C107.138 125.821 105.962 129.055 103.61 131.652C100.972 134.551 96.9521 136 91.5518 136H79.124ZM87.0605 133.99C88.7969 134.373 90.2529 134.564 91.4287 134.564C94.6006 134.564 97.2324 133.45 99.3242 131.222C101.416 128.993 102.462 125.972 102.462 122.157C102.462 118.315 101.416 115.287 99.3242 113.072C97.2324 110.857 94.5459 109.75 91.2646 109.75C90.0342 109.75 88.6328 109.948 87.0605 110.345V133.99ZM121.719 135.241V136H109.804V135.241H110.788C111.937 135.241 112.771 134.906 113.29 134.236C113.618 133.799 113.782 132.746 113.782 131.078V113.113C113.782 111.705 113.693 110.775 113.516 110.324C113.379 109.982 113.099 109.688 112.675 109.442C112.073 109.114 111.444 108.95 110.788 108.95H109.804V108.191H121.719V108.95H120.714C119.579 108.95 118.752 109.285 118.232 109.955C117.891 110.393 117.72 111.445 117.72 113.113V131.078C117.72 132.486 117.809 133.416 117.986 133.867C118.123 134.209 118.41 134.503 118.848 134.749C119.436 135.077 120.058 135.241 120.714 135.241H121.719ZM138.104 107.556C141.714 107.556 144.838 108.93 147.477 111.678C150.129 114.412 151.455 117.83 151.455 121.932C151.455 126.156 150.122 129.663 147.456 132.452C144.79 135.241 141.563 136.636 137.776 136.636C133.948 136.636 130.729 135.275 128.117 132.555C125.52 129.834 124.221 126.313 124.221 121.993C124.221 117.577 125.725 113.975 128.732 111.186C131.344 108.766 134.468 107.556 138.104 107.556ZM137.715 109.053C135.227 109.053 133.23 109.976 131.727 111.821C129.854 114.118 128.917 117.481 128.917 121.911C128.917 126.45 129.888 129.943 131.829 132.391C133.319 134.25 135.288 135.18 137.735 135.18C140.347 135.18 142.5 134.161 144.195 132.124C145.904 130.087 146.759 126.874 146.759 122.485C146.759 117.728 145.822 114.18 143.949 111.842C142.445 109.982 140.367 109.053 137.715 109.053Z" fill="black"/>
</svg>
